HIERARCHY
ROOT Hips
{
  OFFSET 263.056 91.6644 -274.608
  CHANNELS 6 Xposition Yposition Zposition Zrotation Xrotation Yrotation
  JOINT LeftUpLeg
  {
    OFFSET 8.64259 1.95398 -2.38835
    CHANNELS 3 Zrotation Xrotation Yrotation
    JOINT LeftLeg
    {
      OFFSET 43.7702 0 0
      CHANNELS 3 Zrotation Xrotation Yrotation
      JOINT LeftFoot
      {
        OFFSET 40.6238 0 0
        CHANNELS 3 Zrotation Xrotation Yrotation
        JOINT LeftToeBase
        {
          OFFSET 12.7242 0 0
          CHANNELS 3 Zrotation Xrotation Yrotation
          End Site
          {
            OFFSET 0 0 0
          }
        }
      }
    }
  }
  JOINT RightUpLeg
  {
    OFFSET -8.2249 1.95398 -2.59336
    CHANNELS 3 Zrotation Xrotation Yrotation
    JOINT RightLeg
    {
      OFFSET 43.5653 0 0
      CHANNELS 3 Zrotation Xrotation Yrotation
      JOINT RightFoot
      {
        OFFSET 40.6238 0 0
        CHANNELS 3 Zrotation Xrotation Yrotation
        JOINT RightToeBase
        {
          OFFSET 12.7242 0 0
          CHANNELS 3 Zrotation Xrotation Yrotation
          End Site
          {
            OFFSET 0 0 0
          }
        }
      }
    }
  }
  JOINT Spine
  {
    OFFSET 0.165834 0.87714 6.61349
    CHANNELS 3 Zrotation Xrotation Yrotation
    JOINT Spine1
    {
      OFFSET 7.38963 1.71661e-005 0
      CHANNELS 3 Zrotation Xrotation Yrotation
      JOINT Spine2
      {
        OFFSET 11.9445 1.14441e-005 0
        CHANNELS 3 Zrotation Xrotation Yrotation
        JOINT Spine3
        {
          OFFSET 14.7254 4.19617e-005 0
          CHANNELS 3 Zrotation Xrotation Yrotation
          JOINT Spine4
          {
            OFFSET 10.9679 0 0
            CHANNELS 3 Zrotation Xrotation Yrotation
            JOINT RightShoulder
            {
              OFFSET 2.46616 -1.6653 3.69651
              CHANNELS 3 Zrotation Xrotation Yrotation
              JOINT RightArm
              {
                OFFSET 13.0012 0 0
                CHANNELS 3 Zrotation Xrotation Yrotation
                JOINT RightForeArm
                {
                  OFFSET 28.7848 1.52588e-005 0
                  CHANNELS 3 Zrotation Xrotation Yrotation
                  JOINT RightHand
                  {
                    OFFSET 26.5688 1.52588e-005 0
                    CHANNELS 3 Zrotation Xrotation Yrotation
                    End Site
                    {
                      OFFSET 0 0 0
                    }
                  }
                }
              }
            }
            JOINT LeftShoulder
            {
              OFFSET 2.38034 -1.29275 -3.7523
              CHANNELS 3 Zrotation Xrotation Yrotation
              JOINT LeftArm
              {
                OFFSET 16.3182 6.10352e-005 0
                CHANNELS 3 Zrotation Xrotation Yrotation
                JOINT LeftForeArm
                {
                  OFFSET 27.0901 0 0
                  CHANNELS 3 Zrotation Xrotation Yrotation
                  JOINT LeftHand
                  {
                    OFFSET 24.5451 1.52588e-005 0
                    CHANNELS 3 Zrotation Xrotation Yrotation
                    End Site
                    {
                      OFFSET 0 0 0
                    }
                  }
                }
              }
            }
            JOINT Neck
            {
              OFFSET 5.0226 -0.0266342 0
              CHANNELS 3 Zrotation Xrotation Yrotation
              JOINT Head
              {
                OFFSET 6.69364 2.86102e-005 0
                CHANNELS 3 Zrotation Xrotation Yrotation
                End Site
                {
                  OFFSET 0 0 0
                }
              }
            }
          }
        }
      }
    }
  }
}
MOTION
Frames:	7
Frame Time:	0.0416667
329.09 88.6346 249.498 108.846 -38.229 99.8812 -175.462 16.875 91.1229 -34.2446 48.0224 0.738022 41.5474 -16.9219 6.25457 33.2907 8.54244 143.288 171.102 19.8798 82.6452 -86.7656 -4.32869 -4.37027 80.6021 -11.4678 -5.17325 39.5977 0.411501 -7.86655 -6.717 8.61121 -87.4726 9.98675 -12.241 6.01685 -1.64235 -11.9648 6.5546 -24.6286 -13.4743 2.00241 -4.6159 -13.4743 2.00241 63.2421 -8.8199 -177.262 52.4659 8.81535 18.039 -5.14057 1.82904 -70.6197 -29.9619 -2.22276 3.1563 -78.6769 -35.9166 95.4909 -36.9415 36.6285 8.52785 -1.45562 45.3996 -28.5091 -36.0523 15.4683 -52.9456 -5.83224 23.8098 17.3181 7.80383 18.3172 -40.3458 
328.466 90.9627 247.811 108.667 -49.6519 100.052 -175.778 12.7759 89.9322 -23.1034 21.448 2.67216 39.5386 -20.2797 -5.75479 31.4571 12.4864 136.408 178.425 24.5439 82.353 -85.2986 7.99131 -6.1679 57.1891 -4.65516 -2.99582 41.7393 0.827116 0.437516 -4.92446 8.23999 -87.7934 10.5959 -8.79522 5.1794 -1.05714 -8.55907 5.56271 -23.8096 -9.94154 2.2772 -3.79699 -9.94153 2.2772 57.4461 -17.0252 -175.518 40.0413 3.18294 20.9045 -8.18442 2.60822 -80.9071 -28.8396 -1.72149 1.76954 -89.7516 -39.5895 76.631 -41.2643 -1.33885 23.6039 21.2897 25.5966 -40.233 -54.9049 26.3228 -35.6582 3.43063 19.748 11.3303 -4.31189 17.9233 -37.0715 
327.016 90.0398 245.376 108.533 -56.3373 104.282 -175.633 13.3221 96.5116 -15.0608 -17.5004 5.34148 10.8591 -22.7694 -43.9373 31.2392 13.4594 133.641 -175.01 17.2742 83.7823 -86.688 1.54569 -8.90263 52.6673 -0.986602 -0.589168 51.0887 1.75494 2.75632 -3.23638 8.32966 -88.4304 10.3065 -5.73019 3.60688 -1.35736 -5.56597 3.85588 -23.9836 -6.54838 1.71262 -3.97096 -6.54838 1.71262 59.0551 -21.1321 -168.689 36.976 -3.99144 19.165 -15.0936 -0.719155 -93.7389 -26.2991 -1.51144 1.92899 -92.1563 -38.4808 72.2747 -47.5644 -7.45454 31.6862 -9.08428 -14.6808 -56.2558 28.8046 -0.437222 10.1416 13.1523 13.533 1.49692 -14.2058 15.2562 -25.4108 
323.176 91.2215 242.289 107.145 -56.2549 103.134 -176.18 12.2139 97.5233 -3.33852 -31.2566 8.04491 -3.25854 -14.9567 -69.9307 23.1614 -1.73562 103.147 -175.338 8.87006 83.4288 -79.7072 -2.33392 -11.1308 58.3891 0.0902317 0.158641 50.9149 3.08514 13.268 -2.22132 8.63065 -88.851 9.65102 -3.90944 2.58282 -2.01706 -3.79202 2.75244 -24.592 -4.50462 1.28691 -4.57932 -4.50462 1.28691 66.1441 -21.4313 -157.404 39.7608 -9.89363 15.0234 -18.8018 7.29778 -100.248 -25.4709 -1.99579 4.467 -85.9036 -35.8081 82.4781 -53.4651 -0.0788165 31.9971 -10.0149 -9.61887 -62.8789 42.9508 1.91991 0.302145 21.47 6.65849 -0.0831307 -18.618 8.45115 -14.5579 
317.294 94.4595 237.915 101.174 -53.558 99.3366 -177.251 19.9289 96.7181 -7.51971 11.9902 5.02519 -21.8747 -46.3066 -17.0696 126.87 6.81771 -96.025 -178.029 6.59523 85.3895 -67.3705 -7.23059 -10.1114 58.3227 0.553814 0.456563 52.3813 3.65055 14.929 -1.64249 8.69823 -89.6234 9.4924 -3.10527 0.981471 -2.17532 -3.05908 1.1173 -24.7402 -3.25654 0.00187297 -4.72761 -3.25654 0.00187562 74.027 -20.9259 -144.079 43.5237 -16.7089 11.4019 -20.884 7.54057 -99.7678 -27.7659 -2.24668 4.84281 -81.7156 -36.9522 90.1023 -54.6004 1.85679 31.089 -8.3378 -7.28095 -67.3805 42.2143 2.13201 1.0475 28.7867 2.82815 3.14822 -18.9936 2.44247 -6.96961 
310.682 94.8081 233.01 96.6099 -51.0352 95.6614 -176.935 17.75 101.626 16.4342 -75.5891 25.3655 -53.7232 -58.3405 -27.1797 -71.3545 -57.4299 -41.321 -178.788 10.1454 87.5785 -62.1246 -8.6373 -8.30384 61.3279 0.0283938 0.0761252 58.0141 2.98456 5.81802 -0.953112 8.70205 -89.9783 9.47209 -1.89058 0.185954 -2.19752 -1.88057 0.269004 -24.7433 -1.85904 -0.39104 -4.73064 -1.85903 -0.391036 77.1519 -26.4373 -133.632 42.7158 -17.7308 11.1968 -21.0829 6.53874 -94.4359 -28.9101 -2.23708 4.47099 -87.1051 -42.1174 81.6802 -49.5688 -1.85119 27.8781 -9.27777 -8.01798 -69.4108 44.213 2.95869 2.74305 27.9508 -0.745873 5.78478 -10.9818 -2.58469 -4.87449 
302.423 94.3498 227.371 95.3944 -51.4676 92.7774 -177.811 24.011 99.8086 34.3808 -84.0521 65.3658 -43.5375 -13.7565 -77.8196 5.77742 -47.9943 28.7204 -178.999 16.8419 88.9692 -61.3061 2.16761 -6.53215 65.1379 -2.30622 -1.27703 61.5408 3.67687 7.41984 -0.0309602 8.40845 -90.2246 10.0562 -0.164067 -0.434821 -1.61488 -0.183031 -0.427181 -24.1488 -0.0258238 -0.464041 -4.13612 -0.0257985 -0.464031 79.1966 -34.0218 -124.851 39.1803 -16.3184 15.555 -19.6157 -0.690291 -89.1036 -28.3722 -2.12543 4.18748 -100.755 -47.4774 61.9503 -42.6142 -6.05804 26.3828 -9.61944 -9.38561 -66.8838 45.709 2.03398 0.376531 16.7629 -4.60636 13.3608 -0.31911 -8.3114 -6.02572 
